# xmcd
#
# Track frame offsets: 
#        150
#        21399
#        45238
#        66487
#
# Disc length: 1201 seconds
#
# Revision: 7
# Processed by: cddbd v1.5.2PL0 Copyright (c) Steve Scherf et al.
# Submitted via: ExactAudioCopyFreeDBPlugin 1.0
#
DISCID=3004af04
DTITLE=μ's - HEART to HEART!
DYEAR=2015
DGENRE=Anime
TTITLE0=HEART to HEART!
TTITLE1=嵐のなかの恋だから
TTITLE2=HEART to HEART! (Off Vocal)
TTITLE3=嵐のなかの恋だから (Off Vocal)
EXTD=
EXTT0=
EXTT1=
EXTT2=
EXTT3=
PLAYORDER=
